<svg width="429" height="316" viewBox="0 0 429 316" fill="none" xmlns="http://www.w3.org/2000/svg">
<path fill-rule="evenodd" clip-rule="evenodd" d="M122.401 88.0181C122.421 84.7481 125.071 81.4981 126.841 78.7481C131.521 71.4481 136.691 64.4881 142.461 57.9781C168.411 28.6981 206.291 9.77812 245.001 4.83812C324.931 -5.37188 403.721 43.6081 421.941 123.538C425.391 138.678 426.241 154.528 424.821 169.978C423.331 186.268 419.401 202.688 412.661 217.638C405.321 233.918 395.411 249.238 382.971 262.108C328.161 318.798 237.331 327.428 171.431 284.878C154.501 273.938 139.371 259.418 127.931 242.798C124.031 237.138 120.301 231.148 117.151 225.038C114.641 220.148 112.891 215.088 108.051 211.988C101.141 207.558 91.6907 209.108 83.8807 209.148C67.0007 209.238 50.1207 209.058 33.2407 209.088C20.4607 209.108 6.38067 208.098 3.78067 192.298C1.80067 180.308 10.6107 169.288 22.5607 167.878C33.0107 166.638 44.1207 167.778 54.6407 167.758C75.8007 167.718 96.9607 167.668 118.121 167.678C132.541 167.698 148.221 165.898 160.941 174.128C169.461 179.628 172.241 188.688 177.671 196.628C183.411 205.008 191.471 211.698 199.991 217.078C212.971 225.278 228.421 229.778 243.591 231.478C278.541 235.378 310.921 225.328 329.921 194.088C337.291 181.978 341.061 167.938 341.121 153.818C341.161 143.838 339.061 133.888 335.111 124.728C331.921 117.338 327.571 110.188 322.091 104.268C295.811 75.8681 261.041 75.4581 225.101 80.8081C211.741 82.7981 198.611 87.1581 185.161 88.4281C177.891 89.1081 170.351 88.5081 163.051 88.5181C154.251 88.5381 145.461 88.4681 136.661 88.5081C132.121 88.5281 126.771 89.1981 122.401 88.0181ZM65.4707 108.088C71.0307 107.428 76.8607 108.048 82.4607 108.018C94.3507 107.968 106.231 107.958 118.121 107.998C134.521 108.058 150.931 107.778 167.331 107.958C172.541 108.018 177.831 107.648 183.021 108.008C194.581 108.818 204.281 120.038 202.471 131.668C200.931 141.528 192.111 148.668 182.311 149.128C153.911 150.458 125.151 149.108 96.7207 149.128C86.6407 149.138 67.5907 151.288 58.8707 147.108C39.8807 137.998 44.7607 110.568 65.4707 108.088Z" fill="white" stroke="black" stroke-width="7" stroke-linejoin="round"/>
</svg>
